<svg xmlns="http://www.w3.org/2000/svg" viewBox="0 0 79.3 54"><title>Topics</title><g id="Layer_2" data-name="Layer 2"><g id="Layer_1-2" data-name="Layer 1"><path d="M22,29H77a2,2,0,0,0,0-4H22a2,2,0,0,0,0,4Z"/><path d="M22,9.3H77.3a2,2,0,0,0,0-4H22a2,2,0,1,0,0,4Z"/><path d="M22,49.3H77.3a2,2,0,0,0,0-4H22a2,2,0,0,0,0,4Z"/><path d="M7,14a7,7,0,0,0,7-7A7,7,0,0,0,7,0,7,7,0,0,0,0,7,7,7,0,0,0,7,14ZM7,4a3,3,0,0,1,3,3,3,3,0,0,1-3,3A3,3,0,0,1,4,7,3,3,0,0,1,7,4Z"/><path d="M7,34A7,7,0,0,0,7,20,7,7,0,0,0,7,34ZM7,24a3,3,0,0,1,0,6,3,3,0,0,1,0-6Z"/><path d="M7,54A7,7,0,0,0,7,40,7,7,0,0,0,7,54ZM7,44a3,3,0,0,1,0,6,3,3,0,0,1,0-6Z"/></g></g></svg>