<svg xmlns="http://www.w3.org/2000/svg" xmlns:xlink="http://www.w3.org/1999/xlink" viewBox="0 0 240.67 154"><defs><style>.cls-1{fill:none;}.cls-2{clip-path:url(#clip-path);}.cls-3{fill:#d6d6d6;}.cls-4{fill:#848484;}.cls-5{fill:#fff;}.cls-6{fill:#c5dc0a;}.cls-7{fill:#e2ed84;}</style><clipPath id="clip-path"><rect class="cls-1" y="-4.67" width="240.67" height="129.45"/></clipPath></defs><title>ClinEd(Col)</title><g id="Layer_1" data-name="Layer 1"><g class="cls-2"><path class="cls-3" d="M120.69,14.54a109.51,109.51,0,0,1,12.48,218.28,111.76,111.76,0,0,1-12.78.74A109.51,109.51,0,0,1,107.9,15.28a111.76,111.76,0,0,1,12.78-.74h0m0-8a119.77,119.77,0,0,0-13.7.79,117.45,117.45,0,1,0,13.7-.79Z"/><path class="cls-4" d="M232.05,110.78a112.34,112.34,0,1,0-98.63,124.56A112.46,112.46,0,0,0,232.05,110.78ZM139.81,224.24l-8.07-6-5.51,7.72a102.49,102.49,0,0,1-106.3-83l6.49-7.63-8.18-6.6A102.49,102.49,0,0,1,102.5,23l7.32,6.64,6.27-8.14a102.49,102.49,0,0,1,105.09,84.14l-5.48,7.73,7,6.08A102.5,102.5,0,0,1,139.81,224.24Z"/><polygon class="cls-3" points="27.37 134.94 94.84 103.36 120.97 124.11 27.37 134.94"/><polygon class="cls-5" points="27.36 134.84 100.27 150.12 120.94 123.93 27.36 134.84"/><polygon class="cls-3" points="214.44 113.11 146.97 144.69 120.85 123.94 214.44 113.11"/><polygon class="cls-5" points="214.45 113.21 141.54 97.94 120.87 124.12 214.45 113.21"/><polygon class="cls-6" points="131.82 217.56 100.24 150.09 121 123.97 131.82 217.56"/><polygon class="cls-7" points="131.72 217.57 147 144.66 120.81 123.99 131.72 217.57"/><polygon class="cls-3" points="109.99 30.49 141.57 97.96 120.82 124.08 109.99 30.49"/><polygon class="cls-5" points="110.09 30.48 94.82 103.39 121.01 124.06 110.09 30.48"/><polygon class="cls-3" points="62.49 197.88 87.86 127.84 121.01 124.05 62.49 197.88"/><polygon class="cls-5" points="62.41 197.82 124.77 157.06 120.86 123.93 62.41 197.82"/><polygon class="cls-3" points="217.75 1.96 153.95 120.21 120.81 124.01 217.75 1.96"/><polygon class="cls-5" points="217.84 2.02 117.05 90.99 120.95 124.12 217.84 2.02"/><polygon class="cls-3" points="194.77 182.45 124.72 157.07 120.93 123.92 194.77 182.45"/><polygon class="cls-5" points="194.7 182.53 153.95 120.17 120.81 124.07 194.7 182.53"/><polygon class="cls-3" points="47.05 65.61 117.09 90.98 120.89 124.13 47.05 65.61"/><polygon class="cls-5" points="47.12 65.52 87.87 127.88 121 123.98 47.12 65.52"/></g></g><g id="LCD"><path class="cls-5" d="M2.32,141.51c0-4,3-6.81,7.13-6.81A6.18,6.18,0,0,1,15.08,138l-2.61,1.26a3.4,3.4,0,0,0-3-1.83,4.07,4.07,0,0,0,0,8.13,3.36,3.36,0,0,0,3-1.83L15.1,145a6.2,6.2,0,0,1-5.65,3.35C5.36,148.33,2.32,145.53,2.32,141.51Z"/><path class="cls-5" d="M18.15,148.05V135h3.13v10.34H27v2.73Z"/><path class="cls-5" d="M30.47,148.05V135h3.14v13.07Z"/><path class="cls-5" d="M47,148.05l-6.08-8.2v8.2H37.79V135h3.38l5.91,7.89V135h3.14v13.07Z"/><path class="cls-5" d="M54.4,148.05V135h3.13v13.07Z"/><path class="cls-5" d="M61,141.51c0-4,3-6.81,7.13-6.81A6.19,6.19,0,0,1,73.74,138l-2.62,1.26a3.37,3.37,0,0,0-3-1.83,4.07,4.07,0,0,0,0,8.13,3.35,3.35,0,0,0,3-1.83L73.76,145a6.21,6.21,0,0,1-5.65,3.35C64,148.33,61,145.53,61,141.51Z"/><path class="cls-5" d="M84.31,135l5.3,13.07H86.09l-.86-2.16H79.56l-.84,2.16H75.18L80.48,135Zm-1.9,3.18-2,5h3.87Z"/><path class="cls-5" d="M92.17,148.05V135h3.14v10.34h5.75v2.73Z"/><path class="cls-5" d="M111.79,148.05V135h9.86v2.73h-6.72V140h6.58v2.73h-6.58v2.55h6.72v2.73Z"/><path class="cls-5" d="M125.33,148.05V135h5.49c4.33,0,7.13,2.59,7.13,6.53s-2.8,6.54-7.13,6.54Zm9.44-6.54c0-2.11-1.22-3.8-4-3.8h-2.35v7.61h2.35A3.66,3.66,0,0,0,134.77,141.51Z"/><path class="cls-5" d="M141.39,142.87V135h3.16v7.6a3,3,0,0,0,6,0V135h3.16v7.86c0,3.26-2,5.49-6.18,5.49S141.39,146.1,141.39,142.87Z"/><path class="cls-5" d="M157.19,141.51c0-4,3-6.81,7.13-6.81A6.18,6.18,0,0,1,170,138l-2.61,1.26a3.4,3.4,0,0,0-3-1.83,4.07,4.07,0,0,0,0,8.13,3.37,3.37,0,0,0,3-1.83L170,145a6.2,6.2,0,0,1-5.65,3.35C160.23,148.33,157.19,145.53,157.19,141.51Z"/><path class="cls-5" d="M180.52,135l5.3,13.07H182.3l-.85-2.16h-5.68l-.83,2.16H171.4L176.7,135Zm-1.9,3.18-2,5h3.87Z"/><path class="cls-5" d="M190,148.05V137.71h-3.71V135h10.57v2.73h-3.73v10.34Z"/><path class="cls-5" d="M200,148.05V135h3.14v13.07Z"/><path class="cls-5" d="M206.58,141.51a7,7,0,1,1,7,6.82A6.63,6.63,0,0,1,206.58,141.51Zm10.84,0a3.84,3.84,0,1,0-3.83,4.07A3.79,3.79,0,0,0,217.42,141.51Z"/><path class="cls-5" d="M233.28,148.05l-6.08-8.2v8.2h-3.13V135h3.37l5.92,7.89V135h3.13v13.07Z"/></g></svg>