<svg xmlns="http://www.w3.org/2000/svg" xmlns:xlink="http://www.w3.org/1999/xlink" viewBox="0 0 593.17 124.36"><defs><style>.cls-1{fill:none;}.cls-2{clip-path:url(#clip-path);}.cls-3{opacity:0.64;}.cls-4{fill:#fff;}.cls-5{opacity:0.36;}.cls-6{fill:#e0e0e0;}.cls-7{fill:#c5dc0a;}.cls-8{fill:#e2ed84;}</style><clipPath id="clip-path"><rect class="cls-1" y="-4.67" width="240.67" height="129.45"/></clipPath></defs><title>ClinEd(BW+Side)</title><g id="Layer_1" data-name="Layer 1"><g class="cls-2"><g class="cls-3"><path class="cls-4" d="M120.69,10.54a113.5,113.5,0,0,1,12.94,226.25,115.25,115.25,0,0,1-13.24.77,113.51,113.51,0,0,1-13-226.26,115.24,115.24,0,0,1,13.24-.76h0m0-4a119.77,119.77,0,0,0-13.7.79,117.51,117.51,0,0,0,13.41,234.23,119.77,119.77,0,0,0,13.7-.79A117.51,117.51,0,0,0,120.68,6.54Z"/></g><g class="cls-5"><path class="cls-4" d="M232.05,110.78a112.34,112.34,0,1,0-98.63,124.56A112.46,112.46,0,0,0,232.05,110.78ZM139.81,224.24l-8.07-6-5.51,7.72a102.49,102.49,0,0,1-106.3-83l6.49-7.63-8.18-6.6A102.49,102.49,0,0,1,102.5,23l7.32,6.64,6.27-8.14a102.49,102.49,0,0,1,105.09,84.14l-5.48,7.73,7,6.08A102.5,102.5,0,0,1,139.81,224.24Z"/></g><polygon class="cls-6" points="27.37 134.94 94.84 103.36 120.97 124.11 27.37 134.94"/><polygon class="cls-4" points="27.36 134.84 100.27 150.12 120.94 123.93 27.36 134.84"/><polygon class="cls-6" points="214.44 113.11 146.97 144.69 120.85 123.94 214.44 113.11"/><polygon class="cls-4" points="214.45 113.21 141.54 97.94 120.87 124.12 214.45 113.21"/><polygon class="cls-7" points="131.82 217.56 100.24 150.09 121 123.97 131.82 217.56"/><polygon class="cls-8" points="131.72 217.57 147 144.66 120.81 123.99 131.72 217.57"/><polygon class="cls-6" points="109.99 30.49 141.57 97.96 120.82 124.08 109.99 30.49"/><polygon class="cls-4" points="110.09 30.48 94.82 103.39 121.01 124.06 110.09 30.48"/><polygon class="cls-6" points="62.49 197.88 87.86 127.84 121.01 124.05 62.49 197.88"/><polygon class="cls-4" points="62.41 197.82 124.77 157.06 120.86 123.93 62.41 197.82"/><polygon class="cls-6" points="217.75 1.96 153.95 120.21 120.81 124.01 217.75 1.96"/><polygon class="cls-4" points="217.84 2.02 117.05 90.99 120.95 124.12 217.84 2.02"/><polygon class="cls-6" points="194.77 182.45 124.72 157.07 120.93 123.92 194.77 182.45"/><polygon class="cls-4" points="194.7 182.53 153.95 120.17 120.81 124.07 194.7 182.53"/><polygon class="cls-6" points="47.05 65.61 117.09 90.98 120.89 124.13 47.05 65.61"/><polygon class="cls-4" points="47.12 65.52 87.87 127.88 121 123.98 47.12 65.52"/></g></g><g id="LCD"><path class="cls-4" d="M258.22,55.82c0-10.74,8.09-18.14,19-18.14a16.46,16.46,0,0,1,15,8.85l-7,3.35a9,9,0,0,0-8-4.87c-6.07,0-10.49,4.62-10.49,10.81s4.42,10.81,10.49,10.81a9,9,0,0,0,8-4.86l7,3.28A16.55,16.55,0,0,1,277.18,74C266.31,74,258.22,66.51,258.22,55.82Z"/><path class="cls-4" d="M301.9,73.21V38.44h8.35v27.5h15.29v7.27Z"/><path class="cls-4" d="M336.29,73.21V38.44h8.34V73.21Z"/><path class="cls-4" d="M381.87,73.21,365.69,51.4V73.21h-8.35V38.44h9l15.74,21v-21h8.34V73.21Z"/><path class="cls-4" d="M403.11,73.21V38.44h8.34V73.21Z"/><path class="cls-4" d="M422.2,55.82c0-10.74,8.09-18.14,19-18.14a16.43,16.43,0,0,1,15,8.85l-7,3.35a9,9,0,0,0-8-4.87c-6.07,0-10.5,4.62-10.5,10.81s4.43,10.81,10.5,10.81a8.93,8.93,0,0,0,8-4.86l7,3.28a16.52,16.52,0,0,1-15,8.92C430.29,74,422.2,66.51,422.2,55.82Z"/><path class="cls-4" d="M485.86,38.44,500,73.21H490.6l-2.28-5.75H473.21L471,73.21h-9.42l14.1-34.77Zm-5.06,8.47-5.18,13.28h10.3Z"/><path class="cls-4" d="M508.36,73.21V38.44h8.35v27.5H532v7.27Z"/><path class="cls-4" d="M260.18,123.78V89h26.23v7.27H268.52v6.2H286v7.27H268.52v6.76h17.89v7.27Z"/><path class="cls-4" d="M293.05,123.78V89h14.6c11.51,0,19,6.89,19,17.39s-7.46,17.38-19,17.38Zm25.1-17.38c0-5.63-3.23-10.12-10.5-10.12h-6.26v20.23h6.26C314.54,116.51,318.15,111.9,318.15,106.4Z"/><path class="cls-4" d="M332.62,110V89H341v20.23c0,4.74,2.85,8,8,8s8-3.23,8-8V89h8.41v20.93c0,8.66-5.31,14.6-16.44,14.6S332.62,118.6,332.62,110Z"/><path class="cls-4" d="M371.5,106.4c0-10.75,8.09-18.15,19-18.15a16.43,16.43,0,0,1,15,8.85l-6.95,3.35a9,9,0,0,0-8-4.86c-6.07,0-10.5,4.61-10.5,10.81s4.43,10.81,10.5,10.81a9,9,0,0,0,8-4.87l7,3.29a16.53,16.53,0,0,1-15,8.91C379.59,124.54,371.5,117.08,371.5,106.4Z"/><path class="cls-4" d="M430.42,89l14.1,34.77h-9.36L432.88,118h-15.1l-2.22,5.75h-9.42L420.24,89Zm-5.06,8.47-5.18,13.28h10.3Z"/><path class="cls-4" d="M452.42,123.78V96.28h-9.87V89h28.14v7.27h-9.93v27.5Z"/><path class="cls-4" d="M475.93,123.78V89h8.35v34.77Z"/><path class="cls-4" d="M490.28,106.4c0-10.5,7.59-18.15,18.65-18.15s18.72,7.65,18.72,18.15-7.72,18.14-18.72,18.14S490.28,116.83,490.28,106.4Zm28.83,0c0-6.14-4-10.81-10.18-10.81s-10.18,4.67-10.18,10.81,4,10.81,10.18,10.81S519.11,112.47,519.11,106.4Z"/><path class="cls-4" d="M558.18,123.78,542,102v21.81h-8.34V89h9l15.74,21V89h8.34v34.77Z"/></g></svg>