<svg xmlns="http://www.w3.org/2000/svg" viewBox="0 0 275.37 77.57"><defs><style>.cls-1,.cls-2{fill:#fff;}.cls-2,.cls-3{opacity:0.83;}</style></defs><title>vch</title><g id="Layer_2" data-name="Layer 2"><g id="Layer_1-2" data-name="Layer 1"><path class="cls-1" d="M165.82,32.42C194.63,22.24,199.89.25,212.24,0c4.46-.09,8.19,1.81,13.92,4,12.52-5.73,30.74,19.2,43.27,22.08-7,.71-21.87-11.27-31.65-16.15-9.55-4.76-13.59,1.91-15,4.28-.54.88-3,4.42-5.55,3.38C213.77,16.19,214,8,213.47,7.77s-6.85,7.31-8.35,8.84c-.67.67-1.89,1.81-2.71,1.64-1.79-.38-2.23-3.3-3.75-3.05C198.28,15.21,181.61,35.88,165.82,32.42Z"/><path class="cls-2" d="M275,36.33c-1.31-3.78-6.87-6.17-20.28-6.18A130.1,130.1,0,0,0,239,31c-23.93,2.82-47,12.13-47,12.13l3.5-.92c25.72-6.47,39.39-7.9,47.41-8.63,2.65-.24,5-.33,7.22-.33,10.7,0,15.26,2.45,15.47,2.53A8.79,8.79,0,0,0,269,39.19a7.86,7.86,0,0,0,3.83,1.19,2.3,2.3,0,0,0,2.57-2.3A5.26,5.26,0,0,0,275,36.33Z"/><path class="cls-1" d="M18.34,74.11a1.49,1.49,0,0,1,.22.63c0,.73-2.91,2.74-7.1,2.74C4,77.48.39,72.61.39,62.35c0-9.83,3.67-15.6,11.07-15.6,3.21,0,7,2.35,7,3.16a.94.94,0,0,1-.21.64L16.68,53c-.17.25-.35.42-.53.42-.72,0-2.12-2-4.39-2-3.68,0-5.3,2.52-5.3,9.87s.89,11.63,5.3,11.63c2.39,0,3.93-1.58,4.78-1.58.19,0,.31.13.47.43Z"/><path class="cls-1" d="M31.69,72.76c-3.37,0-3.94-3.41-3.94-7.89S28.37,57,31.69,57s3.95,3.41,3.95,7.88S35.06,72.76,31.69,72.76Zm10.44-7.89c0-7.74-4-12.69-10.44-12.69s-10.43,5-10.43,12.69,3.94,12.7,10.43,12.7S42.13,72.62,42.13,64.87Z"/><path class="cls-1" d="M58.42,71.27a5.25,5.25,0,0,1-3.6,1.82,3.14,3.14,0,0,1-3.18-3.26c0-4.23,5.58-3.85,6.78-3.85ZM65,75.88c.23-.09.43-.23.43-.42,0-1-1.25-1.59-1.25-6.25V59.92c0-5-2.26-7.74-8.27-7.74-3.7,0-8.46,1.15-8.46,2.26a1.27,1.27,0,0,0,.14.58l1,2.93c0,.2.24.48.48.48.63,0,3.27-1.44,6-1.44,3,0,3.41,1.39,3.41,3.56V62c-3.79,0-12.55,0-12.55,8.13,0,4.51,2.8,7.4,7.22,7.4a8,8,0,0,0,6.25-2.89c.24,1.2,1,2.89,1.4,2.89a3.67,3.67,0,0,0,.62-.19Z"/><path class="cls-1" d="M84.35,57.81a.87.87,0,0,1-.39.42A14.88,14.88,0,0,0,78.38,57c-1.82,0-3.17.67-3.17,2.31,0,2.6,4.33,2.4,7.74,4.66a6.69,6.69,0,0,1,3.22,5.87c0,4.42-3.13,7.74-8.22,7.74-3.56,0-9-1.83-9-3.13,0-.14.2-.43.24-.62l1.06-2.74c.09-.24.19-.44.39-.44s3.88,2.12,6.87,2.12c1.59,0,2.93-.67,2.93-2.4,0-2.79-4.71-2.79-7.88-4.91A6.22,6.22,0,0,1,69.67,60c0-4.38,3.33-7.84,8.52-7.84,2.93,0,7.5,1.25,7.5,2.35a1.92,1.92,0,0,1-.24.63Z"/><path class="cls-1" d="M105.4,75.36l-1-3.94a.38.38,0,0,0-.39-.3c-.68,0-1.88.92-3.8.92-1.63,0-1.63-1.4-1.63-2.94V57.46h4.75c.59,0,.73,0,.87-.71l.62-2.84a1.29,1.29,0,0,0,0-.38c0-.53-.38-.53-.81-.53H98.63V47.32a.58.58,0,0,0-.58-.57h-5a.57.57,0,0,0-.58.57V53H89.1c-.57,0-.66.14-.66.67V56.8c0,.52.09.66.66.66h3.42V68.29c0,4.42,0,9.28,6.2,9.28,3.28,0,6.78-.92,6.78-1.83C105.5,75.6,105.46,75.6,105.4,75.36Z"/><path class="cls-1" d="M120.12,71.27a5.28,5.28,0,0,1-3.61,1.82,3.13,3.13,0,0,1-3.18-3.26c0-4.23,5.58-3.85,6.79-3.85Zm6.59,4.61c.24-.09.42-.23.42-.42,0-1-1.24-1.59-1.24-6.25V59.92c0-5-2.26-7.74-8.27-7.74-3.71,0-8.46,1.15-8.46,2.26a1.41,1.41,0,0,0,.14.58l1,2.93c0,.2.23.48.47.48.62,0,3.27-1.44,6-1.44,3,0,3.41,1.39,3.41,3.56V62c-3.81,0-12.55,0-12.55,8.13,0,4.51,2.79,7.4,7.21,7.4A8,8,0,0,0,121,74.68c.23,1.2,1,2.89,1.38,2.89a3.78,3.78,0,0,0,.63-.19Z"/><path class="cls-1" d="M142.52,75.84l-1-3.94a.35.35,0,0,0-.38-.29,7.67,7.67,0,0,1-1.88.43C138,72,138,70.7,138,69.16V47.32a.57.57,0,0,0-.58-.57h-4.95a.57.57,0,0,0-.58.57v21c0,4.42,0,9.28,5.92,9.28,2.3,0,4.85-.67,4.85-1.35C142.62,76.08,142.57,76.08,142.52,75.84Z"/><g class="cls-3"><path class="cls-1" d="M29.06,33.14a4.16,4.16,0,0,1-2.85,1.44A2.47,2.47,0,0,1,23.7,32c0-3.35,4.41-3,5.36-3Zm5.2,3.64c.2-.06.35-.19.35-.33,0-.76-1-1.26-1-5V24.16c0-3.95-1.78-6.12-6.53-6.12-2.94,0-6.7.92-6.7,1.79a1,1,0,0,0,.12.46l.75,2.32c0,.15.19.38.38.38.5,0,2.59-1.14,4.72-1.14,2.4,0,2.7,1.09,2.7,2.81v1.18c-3,0-9.93,0-9.93,6.43,0,3.58,2.21,5.85,5.7,5.85a6.39,6.39,0,0,0,5-2.27c.19.93.76,2.27,1.1,2.27a3.5,3.5,0,0,0,.49-.14Z"/><path class="cls-1" d="M53.85,37c0,.41-.08.53-.53.53H49.55c-.44,0-.53-.12-.53-.53V25.23c0-1.45-.18-3.19-2.13-3.19a5.25,5.25,0,0,0-3.35,1.55V37c0,.41-.06.53-.53.53H39.25c-.46,0-.54-.12-.54-.53V25.46c0-5.37-.72-5.05-.72-5.93,0-.19.17-.34.42-.43l2.9-.94a1.66,1.66,0,0,1,.56-.12c.5,0,.8.84,1.22,2.63A8.2,8.2,0,0,1,48.9,18c2.09,0,5,.95,5,5.55Z"/><path class="cls-1" d="M71.77,35.72a2.09,2.09,0,0,1,.11.39c0,.91-3.08,2-5.37,2-5.28,0-8.44-3.23-8.44-9.66S61.31,18,66.94,18c2,0,5.4,1.15,5.4,2.32a1.32,1.32,0,0,1-.12.35l-1.41,2.47c-.07.08-.16.19-.26.19-.39,0-1.64-1.52-3.61-1.52-2.59,0-3.73,2-3.73,6.35,0,4.18,1,6.12,3.92,6.12,1.94,0,2.69-1.29,3.37-1.29a.33.33,0,0,1,.28.19Z"/><path class="cls-1" d="M82.57,34.32c-2.67,0-3.12-2.7-3.12-6.24s.49-6.23,3.12-6.23,3.1,2.69,3.1,6.23S85.22,34.32,82.57,34.32Zm8.25-6.24c0-6.12-3.17-10-8.25-10s-8.26,3.92-8.26,10,3.11,10,8.26,10S90.82,34.2,90.82,28.08Z"/><path class="cls-1" d="M107.55,38a1.81,1.81,0,0,1-.58.12c-.49,0-.79-.72-1.22-2.25a8.31,8.31,0,0,1-5.81,2.25c-2.09,0-4.94-.95-4.94-5.55V19.49c0-.53.27-.58.72-.68l3.2-.65c.11,0,.5-.12.62-.12s.29.16.29.81V30.93c0,1.45.19,3.2,2.13,3.2A6,6,0,0,0,105.3,33V19.49c0-.53.27-.58.73-.68l3.2-.65c.1,0,.49-.12.63-.12s.27.16.27.81V30.71c0,5.36.73,5,.73,5.93,0,.19-.17.34-.42.42Z"/><path class="cls-1" d="M123.87,37.32c-.16.42-.2.49-.74.49H120c-.53,0-.58-.07-.73-.49l-6-17.52a2.94,2.94,0,0,1-.2-.66c0-.29.28-.33.85-.42l3.16-.34.61,0c.3,0,.41.37.53.75l2.32,8.57c.41,1.51,1,4.1,1.21,5.5h.08a51.59,51.59,0,0,1,1.29-5.5l2.59-8.57c.11-.41.23-.75.52-.75l.61,0,2.59.34c.58.09.83.13.83.42a3.18,3.18,0,0,1-.18.66Z"/><path class="cls-1" d="M136.19,25.84c.11-1.06.27-4.26,3.24-4.26,2.61,0,2.73,2.7,2.73,4.26Zm9.42,7.33a.5.5,0,0,0-.4-.3c-.54,0-2.1,1.26-4.84,1.26-3.58,0-4.18-2.63-4.18-4.76h10.22c.73,0,.88-.22.88-.94,0-4.61-1.14-10.39-7.61-10.39-5.09,0-8.33,4.18-8.33,10.24,0,7,3.5,9.84,8.52,9.84,3,0,6.81-1.25,6.81-2.25a.7.7,0,0,0-.11-.41Z"/><path class="cls-1" d="M156.3,37c0,.41-.08.53-.53.53H152c-.46,0-.54-.12-.54-.53V25.46c0-4.19-1-4.88-1-5.75,0-.14.15-.26.34-.33l2.89-1.18a2.09,2.09,0,0,1,.5-.16c.44,0,1.21,1.72,1.4,3,.72-.87,2.13-3,4.71-3,1.11,0,2.21.38,2.21.87a.91.91,0,0,1-.08.39l-1.17,3.19c0,.12-.16.34-.31.34a7.52,7.52,0,0,0-1.78-.42c-1.19,0-2.4,1.31-2.9,1.83Z"/></g><g class="cls-3"><path class="cls-1" d="M166.83,75.83c0,.79-.17.92-.92.92h-4.07c-.74,0-.92-.13-.92-.92V63.6H152.6V75.83c0,.79-.17.92-.92.92H147.6c-.73,0-.92-.13-.92-.92V47.66c0-.79.19-.91.92-.91h4.08c.75,0,.92.12.92.91V58.87h8.32V47.66c0-.79.18-.91.92-.91h4.07c.75,0,.92.12.92.91Z"/><path class="cls-1" d="M177.32,62c.15-1.34.34-5.39,4.09-5.39,3.32,0,3.46,3.41,3.46,5.39Zm11.92,9.28a.62.62,0,0,0-.52-.39c-.67,0-2.65,1.59-6.11,1.59-4.51,0-5.29-3.31-5.29-6h12.94c.91,0,1.11-.29,1.11-1.2,0-5.82-1.45-13.13-9.63-13.13-6.44,0-10.53,5.28-10.53,12.94,0,8.84,4.42,12.45,10.78,12.45,3.79,0,8.61-1.59,8.61-2.84a1,1,0,0,0-.15-.52Z"/><path class="cls-1" d="M207.53,71.27a5.33,5.33,0,0,1-3.62,1.82,3.13,3.13,0,0,1-3.17-3.26c0-4.23,5.58-3.85,6.79-3.85Zm6.58,4.61c.23-.09.43-.23.43-.42,0-1-1.25-1.59-1.25-6.25V59.92c0-5-2.26-7.74-8.28-7.74-3.69,0-8.45,1.15-8.45,2.26a1.27,1.27,0,0,0,.14.58l1,2.93c.05.2.24.48.49.48.62,0,3.27-1.44,6-1.44,3,0,3.42,1.39,3.42,3.56V62C203.72,62,195,62,195,70.17c0,4.51,2.78,7.4,7.2,7.4a8,8,0,0,0,6.26-2.89c.24,1.2.95,2.89,1.39,2.89a3.67,3.67,0,0,0,.62-.19Z"/><path class="cls-1" d="M230.21,75.84l-1-3.94a.35.35,0,0,0-.38-.29A7.54,7.54,0,0,1,227,72c-1.34,0-1.34-1.34-1.34-2.88V47.32a.57.57,0,0,0-.58-.57h-4.95a.57.57,0,0,0-.58.57v21c0,4.42,0,9.28,5.92,9.28,2.3,0,4.85-.67,4.85-1.35C230.31,76.08,230.26,76.08,230.21,75.84Z"/><path class="cls-1" d="M248.25,75.36l-1-3.94a.37.37,0,0,0-.38-.3c-.68,0-1.87.92-3.8.92-1.64,0-1.64-1.4-1.64-2.94V57.46h4.76c.58,0,.73,0,.87-.71l.62-2.84a1.29,1.29,0,0,0,0-.38c0-.53-.38-.53-.81-.53h-5.49V47.32a.56.56,0,0,0-.57-.57h-5a.57.57,0,0,0-.57.57V53h-3.42c-.57,0-.66.14-.66.67V56.8c0,.52.09.66.66.66h3.42V68.29c0,4.42,0,9.28,6.2,9.28,3.27,0,6.78-.92,6.78-1.83C248.34,75.6,248.29,75.6,248.25,75.36Z"/><path class="cls-1" d="M264.65,52.18A9.74,9.74,0,0,0,258,54.92v-7.6a.56.56,0,0,0-.56-.57h-5a.57.57,0,0,0-.58.57V76.08c0,.53.1.67.68.67h4.75c.58,0,.67-.14.67-.67V59.25a6.15,6.15,0,0,1,4.09-2c2.45,0,2.69,2.21,2.69,4V76.08c0,.53.1.67.67.67h4.77c.58,0,.67-.14.67-.67V59.77C270.89,55.6,269.74,52.18,264.65,52.18Z"/></g><g class="cls-3"><path class="cls-1" d="M9.38,33c.41-2.22.56-3.08.9-4.48l.22-.86,3.23-13.94c.15-.48.37-.63.63-.63h3.87c.47,0,.69.08.69.34a3.27,3.27,0,0,1-.08.44l-6.6,23.52c-.15.52-.22.59-.82.59H7.23c-.59,0-.63,0-.78-.59L.07,14c0-.18-.07-.37-.07-.44,0-.26.15-.37.63-.45H5c.26,0,.37.15.48.63l3,14c0,.22.11.59.22,1.15s.19.89.23,1.11l.25,1.52Z"/></g></g></g></svg>