<svg xmlns="http://www.w3.org/2000/svg" viewBox="0 0 60.031 77.998"><defs><style>.a{fill:#e9e9e0;}.b{fill:#d9d7ca;}.c{fill:#cc4b4c;}.d{fill:#fff;}</style></defs><g transform="translate(-198 -7584)"><path class="a" d="M42.481,0H2.089C.975,0,0,.975,0,2.646V76.605A2.278,2.278,0,0,0,2.089,78H57.941a2.278,2.278,0,0,0,2.089-1.393v-58.5c0-.975-.139-1.254-.418-1.532L43.317.418A1.2,1.2,0,0,0,42.481,0Z" transform="translate(198 7584)"/><path class="b" d="M31,.2V16.635H47.435Z" transform="translate(210.177 7584.079)"/><path class="c" d="M13.834,43.671h0a2.687,2.687,0,0,1-1.393-.418,3.261,3.261,0,0,1-1.532-3.064q.418-3.343,8.357-7.1a101.719,101.719,0,0,0,5.293-15.042c-1.393-3.064-2.786-6.964-1.811-9.193A2.628,2.628,0,0,1,24.28,7.179,4.949,4.949,0,0,1,25.673,6.9c.7,0,1.254.836,1.811,1.393.418.557,1.393,1.671-.557,9.471a45.353,45.353,0,0,0,7.1,10.585,33.143,33.143,0,0,1,4.736-.557c2.229,0,3.482.557,4.039,1.532.418.836.279,1.811-.557,3.064a3.664,3.664,0,0,1-3.064,1.671c-1.671,0-3.621-1.114-5.85-3.2a78.257,78.257,0,0,0-12.257,3.9,32.806,32.806,0,0,1-3.343,5.989C16.341,42.835,15.088,43.671,13.834,43.671Zm3.761-7.1c-2.925,1.671-4.178,3.064-4.318,3.761,0,.139,0,.418.557.975C14.113,41.3,15.366,40.746,17.595,36.567Zm18.942-6.128c1.114.836,1.393,1.254,2.089,1.254.279,0,1.254,0,1.671-.557.139-.279.279-.418.279-.557-.139-.139-.418-.279-1.671-.279A7.307,7.307,0,0,0,36.537,30.439ZM26.091,21.246A106.9,106.9,0,0,1,22.33,31.832a74.955,74.955,0,0,1,9.053-2.786A84.678,84.678,0,0,1,26.091,21.246ZM25.255,9.407a3.36,3.36,0,0,0,.139,4.457C26.787,10.939,25.394,9.407,25.255,9.407Z" transform="translate(202.273 7586.71)"/><path class="c" d="M57.8,62.678H2.089A2.142,2.142,0,0,1,0,60.589V39H59.891V60.589A2.142,2.142,0,0,1,57.8,62.678Z" transform="translate(198 7599.32)"/><g transform="translate(210.814 7643.752)"><path class="d" d="M11.568,56.968H9.2V42.9h4.039a8.152,8.152,0,0,1,1.811.279,3.32,3.32,0,0,1,1.532.836A5.453,5.453,0,0,1,17.7,45.407a3.856,3.856,0,0,1,.418,1.811,4.449,4.449,0,0,1-.418,1.95,3.555,3.555,0,0,1-.975,1.393,4.149,4.149,0,0,1-1.532.975,9.406,9.406,0,0,1-1.95.279H11.568v5.153Zm0-12.257v5.571h2.089a1.767,1.767,0,0,0,.836-.139,3.045,3.045,0,0,0,.7-.418,2.914,2.914,0,0,0,.557-.836,3.881,3.881,0,0,0,.139-1.393,1.767,1.767,0,0,0-.139-.836,1.2,1.2,0,0,0-.418-.836,1.426,1.426,0,0,0-.836-.7A4.121,4.121,0,0,0,13.1,44.85l-1.532-.139Z" transform="translate(-9.2 -42.9)"/><path class="d" d="M28.921,49.586A9.26,9.26,0,0,1,28.5,52.51a7.278,7.278,0,0,1-.975,2.089,5.319,5.319,0,0,1-1.254,1.254,6.506,6.506,0,0,1-1.393.7,4.067,4.067,0,0,1-1.254.279H17.5V42.9h4.178a7.085,7.085,0,0,1,3.064.557,6.364,6.364,0,0,1,2.229,1.532,18.147,18.147,0,0,1,1.393,2.089A5.463,5.463,0,0,1,28.921,49.586ZM22.236,55.3a3.866,3.866,0,0,0,3.343-1.532,7.345,7.345,0,0,0,.975-4.318,6.781,6.781,0,0,0-.139-1.671,3.32,3.32,0,0,0-.836-1.532,5.009,5.009,0,0,0-1.671-1.114,7.02,7.02,0,0,0-2.646-.418H19.868V55.3Z" transform="translate(-5.94 -42.9)"/><path class="d" d="M30.468,44.711v4.457h5.85V50.7h-5.85v6.268H28.1V42.9h8.775v1.671H30.468Z" transform="translate(-1.776 -42.9)"/></g></g></svg>