<?xml version="1.0" encoding="utf-8"?>
<!-- Generator: Adobe Illustrator 22.1.0, SVG Export Plug-In . SVG Version: 6.00 Build 0)  -->
<svg version="1.1" id="Layer_1" xmlns="http://www.w3.org/2000/svg" xmlns:xlink="http://www.w3.org/1999/xlink" x="0px" y="0px"
	 viewBox="0 0 79.3 54" style="enable-background:new 0 0 79.3 54;" xml:space="preserve">
<style type="text/css">
	.st0{fill:#FFFFFF;}
</style>
<title>Topics</title>
<g id="Layer_2_1_">
	<g id="Layer_1-2">
		<path class="st0" d="M22,29h55c1.1,0,2-0.9,2-2s-0.9-2-2-2H22c-1.1,0-2,0.9-2,2S20.9,29,22,29z"/>
		<path class="st0" d="M22,9.3h55.3c1.1,0,2-0.9,2-2s-0.9-2-2-2H22c-1.1,0-2,0.9-2,2S20.9,9.3,22,9.3z"/>
		<path class="st0" d="M22,49.3h55.3c1.1,0,2-0.9,2-2s-0.9-2-2-2H22c-1.1,0-2,0.9-2,2S20.9,49.3,22,49.3z"/>
		<path class="st0" d="M7,14c3.9,0,7-3.1,7-7s-3.1-7-7-7S0,3.1,0,7S3.1,14,7,14z M7,4c1.7,0,3,1.3,3,3s-1.3,3-3,3S4,8.7,4,7
			S5.3,4,7,4z"/>
		<path class="st0" d="M7,34c3.9,0,7-3.1,7-7s-3.1-7-7-7s-7,3.1-7,7S3.1,34,7,34z M7,24c1.7,0,3,1.3,3,3s-1.3,3-3,3s-3-1.3-3-3
			S5.3,24,7,24z"/>
		<path class="st0" d="M7,54c3.9,0,7-3.1,7-7s-3.1-7-7-7s-7,3.1-7,7S3.1,54,7,54z M7,44c1.7,0,3,1.3,3,3s-1.3,3-3,3s-3-1.3-3-3
			S5.3,44,7,44z"/>
	</g>
</g>
</svg>
