<?xml version="1.0" standalone="no"?>
<!DOCTYPE svg PUBLIC "-//W3C//DTD SVG 20010904//EN"
 "http://www.w3.org/TR/2001/REC-SVG-20010904/DTD/svg10.dtd">
<svg version="1.0" xmlns="http://www.w3.org/2000/svg"
 width="585.000000pt" height="585.000000pt" viewBox="0 0 585.000000 585.000000"
 preserveAspectRatio="xMidYMid meet">
<metadata>
Created by potrace 1.11, written by Peter Selinger 2001-2013
</metadata>
<g transform="translate(0.000000,585.000000) scale(0.100000,-0.100000)"
fill="#000000" stroke="none">
<path d="M2895 3963 c-16 -14 -122 -105 -235 -203 -113 -97 -311 -280 -440
-405 -449 -435 -626 -581 -890 -730 -103 -59 -127 -79 -135 -116 -9 -39 18
-116 56 -162 48 -58 99 -80 179 -75 60 3 76 9 166 62 54 33 119 75 144 94 58
43 434 381 754 677 336 310 383 352 441 391 100 66 169 65 275 -4 77 -50 456
-432 841 -846 371 -401 418 -441 506 -434 68 6 83 19 83 77 0 58 -10 74 -149
241 -143 172 -203 261 -232 347 -23 65 -24 81 -24 335 0 254 -1 268 -21 294
-31 43 -67 65 -112 71 -105 14 -110 2 -132 -300 -5 -66 -11 -121 -14 -124 -3
-3 -83 66 -178 154 -246 226 -336 305 -581 506 -236 193 -246 199 -302 150z"/>
<path d="M2819 2851 c-61 -37 -64 -41 -64 -77 0 -33 6 -42 43 -71 46 -35 78
-40 131 -22 51 18 75 83 50 132 -18 35 -61 77 -79 77 -9 0 -45 -17 -81 -39z"/>
<path d="M3171 2849 c-55 -36 -61 -44 -61 -74 0 -29 7 -40 46 -70 129 -97 259
34 149 151 -18 19 -41 34 -53 34 -11 0 -47 -18 -81 -41z"/>
<path d="M2818 2536 c-24 -18 -48 -78 -48 -120 0 -69 95 -110 169 -72 59 31
69 115 20 171 -27 31 -37 35 -78 35 -25 0 -54 -7 -63 -14z"/>
<path d="M3217 2535 c-16 -8 -46 -29 -68 -46 -31 -25 -39 -37 -39 -64 0 -28 7
-38 47 -64 25 -17 52 -31 59 -31 19 0 80 56 105 96 19 31 20 39 8 60 -10 20
-66 64 -80 64 -2 0 -17 -7 -32 -15z"/>
</g>
</svg>
